<svg width="1200" height="760" viewBox="0 0 1200 760" fill="none" xmlns="http://www.w3.org/2000/svg" role="img" aria-label="Ilustrasi lanskap dengan jalur berliku menuju puncak—metafora roadmap karir">
  <defs>
    <linearGradient id="rm-sky" x1="0" y1="0" x2="0" y2="1">
      <stop offset="0" stop-color="#eaf6ff"/>
      <stop offset="0.62" stop-color="#d4ecfb"/>
      <stop offset="1" stop-color="#c4e4f7"/>
    </linearGradient>
    <linearGradient id="rm-path" x1="0" y1="1" x2="1" y2="0">
      <stop offset="0" stop-color="#38bdf8"/>
      <stop offset="1" stop-color="#0098f2"/>
    </linearGradient>
    <radialGradient id="rm-sun" cx="0.5" cy="0.5" r="0.5">
      <stop offset="0" stop-color="#ffffff" stop-opacity="0.95"/>
      <stop offset="1" stop-color="#ffffff" stop-opacity="0"/>
    </radialGradient>
    <clipPath id="rm-clip"><rect width="1200" height="760" rx="0"/></clipPath>
  </defs>

  <g clip-path="url(#rm-clip)">
    <rect width="1200" height="760" fill="url(#rm-sky)"/>

    <circle cx="945" cy="195" r="190" fill="url(#rm-sun)"/>
    <circle cx="945" cy="195" r="58" fill="#ffffff" opacity="0.9"/>

    <g fill="#ffffff" opacity="0.7">
      <ellipse cx="250" cy="150" rx="78" ry="20"/>
      <ellipse cx="320" cy="160" rx="56" ry="16"/>
      <ellipse cx="640" cy="110" rx="64" ry="17"/>
    </g>

    <path d="M0 470 C 180 410 320 450 480 420 C 660 386 820 430 1000 400 C 1090 386 1160 396 1200 392 L1200 760 L0 760 Z" fill="#bfe0f3"/>
    <path d="M0 540 C 200 470 380 520 560 500 C 760 478 900 540 1100 506 C 1150 498 1180 500 1200 498 L1200 760 L0 760 Z" fill="#a7d8c4"/>
    <path d="M0 640 C 220 588 420 636 640 612 C 840 590 980 642 1200 610 L1200 760 L0 760 Z" fill="#8ccfae"/>

    <path d="M150 740 C 360 690 300 590 470 560 C 650 528 600 440 760 410 C 900 384 880 320 980 286"
          stroke="url(#rm-path)" stroke-width="10" stroke-linecap="round"
          stroke-dasharray="2 22" fill="none" opacity="0.95"/>
    <path d="M150 740 C 360 690 300 590 470 560 C 650 528 600 440 760 410 C 900 384 880 320 980 286"
          stroke="#ffffff" stroke-width="2" stroke-linecap="round"
          stroke-dasharray="2 22" fill="none" opacity="0.5"/>

    <g>
      <circle cx="470" cy="560" r="13" fill="#ffffff"/>
      <circle cx="470" cy="560" r="6" fill="#0098f2"/>
      <circle cx="760" cy="410" r="13" fill="#ffffff"/>
      <circle cx="760" cy="410" r="6" fill="#6d56fc"/>
    </g>

    <g>
      <line x1="980" y1="286" x2="980" y2="232" stroke="#0d111b" stroke-width="4" stroke-linecap="round"/>
      <path d="M980 234 L1024 246 L980 260 Z" fill="#f200ca"/>
      <circle cx="980" cy="286" r="15" fill="#ffffff"/>
      <circle cx="980" cy="286" r="7" fill="#0d111b"/>
    </g>
  </g>
</svg>
